<mxfile host="Electron" modified="2023-08-10T14:29:29.168Z" agent="Mozilla/5.0 (Windows NT 10.0; Win64; x64) AppleWebKit/537.36 (KHTML, like Gecko) draw.io/21.6.5 Chrome/114.0.5735.243 Electron/25.3.1 Safari/537.36" etag="sbIjfiosnYF5K_dYq4pn" version="21.6.5" type="device">
  <diagram name="Page-1" id="djcV0nNlC-6KXO5aXZvP">
    <mxGraphModel dx="1599" dy="1124" grid="1" gridSize="10" guides="1" tooltips="1" connect="1" arrows="1" fold="1" page="1" pageScale="1" pageWidth="1169" pageHeight="827" math="0" shadow="0">
      <root>
        <mxCell id="0" />
        <mxCell id="1" parent="0" />
        <mxCell id="_nycZQkGBjbzIbObWCUm-1" value="Framework" style="shape=process;whiteSpace=wrap;html=1;backgroundOutline=1;fillColor=#ffcd28;gradientColor=#ffa500;strokeColor=#d79b00;gradientDirection=west;fontStyle=1" vertex="1" parent="1">
          <mxGeometry x="40" y="40" width="130" height="60" as="geometry" />
        </mxCell>
        <mxCell id="_nycZQkGBjbzIbObWCUm-2" value="Line of Business App" style="shape=process;whiteSpace=wrap;html=1;backgroundOutline=1;fillColor=#dae8fc;gradientColor=#7ea6e0;strokeColor=#6c8ebf;gradientDirection=east;fontStyle=1" vertex="1" parent="1">
          <mxGeometry x="230" y="40" width="130" height="60" as="geometry" />
        </mxCell>
        <mxCell id="_nycZQkGBjbzIbObWCUm-9" value="class =&amp;gt; record" style="rounded=0;whiteSpace=wrap;html=1;fillColor=none;gradientColor=#7ea6e0;strokeColor=#6c8ebf;strokeWidth=4;" vertex="1" parent="1">
          <mxGeometry x="210" y="190" width="150" height="40" as="geometry" />
        </mxCell>
        <mxCell id="_nycZQkGBjbzIbObWCUm-10" value="method container &amp;lt;= class" style="rounded=0;whiteSpace=wrap;html=1;fillColor=none;gradientColor=#ffa500;strokeColor=#d79b00;strokeWidth=4;" vertex="1" parent="1">
          <mxGeometry x="40" y="190" width="150" height="40" as="geometry" />
        </mxCell>
        <mxCell id="_nycZQkGBjbzIbObWCUm-11" value="" style="shape=doubleArrow;whiteSpace=wrap;html=1;fillColor=#FFA500;gradientColor=#7EA6E0;strokeColor=#d79b00;gradientDirection=east;" vertex="1" parent="1">
          <mxGeometry x="40" y="110" width="320" height="60" as="geometry" />
        </mxCell>
        <mxCell id="_nycZQkGBjbzIbObWCUm-12" value="Data oriented" style="text;html=1;strokeColor=none;fillColor=none;align=center;verticalAlign=middle;whiteSpace=wrap;rounded=0;" vertex="1" parent="1">
          <mxGeometry x="260" y="125" width="90" height="30" as="geometry" />
        </mxCell>
        <mxCell id="_nycZQkGBjbzIbObWCUm-13" value="Functionality oriented" style="text;html=1;strokeColor=none;fillColor=none;align=center;verticalAlign=middle;whiteSpace=wrap;rounded=0;" vertex="1" parent="1">
          <mxGeometry x="60" y="125" width="130" height="30" as="geometry" />
        </mxCell>
      </root>
    </mxGraphModel>
  </diagram>
</mxfile>
